<?xml version="1.0" encoding="UTF-8" standalone="no"?>
<!DOCTYPE svg PUBLIC "-//W3C//DTD SVG 1.1//EN" "http://www.w3.org/Graphics/SVG/1.1/DTD/svg11.dtd">
<svg xmlns="http://www.w3.org/2000/svg" xmlns:xlink="http://www.w3.org/1999/xlink" version="1.1" width="1920pt" height="1080pt" viewBox="0 0 1920 1080">
<g enable-background="new">
<g id="Layer-1" data-name="Layer 1">
<clipPath id="cp0">
<path transform="matrix(1,0,0,-1,0,1080)" d="M 0 1080 L 1920 1080 L 1920 0 L 0 0 Z "/>
</clipPath>
<g clip-path="url(#cp0)">
<path transform="matrix(1,0,0,-1,1668.4,345.71003)" d="M 0 0 C -4.1 6 -18.82 8.93 -32.62 8.92 L -548.073 8.7 C -548.084 8.7 -548.084 8.685 -548.073 8.683 C -530.672 5.318 -528.268 -13.304 -533.1 -21.62 L -664.71 -231.63 C -664.71 -231.64 -664.72 -231.64 -664.72 -231.65 L -671.53 -242.51 L -690.57 -272.9 C -691.77 -274.91 -690.63 -277.39 -688.53 -277.96 C -688.24 -278.04 -687.94 -278.08 -687.62 -278.08 L -528.79 -278.08 C -514.38 -278.08 -500.97 -270.68 -492.28 -256.48 L -451.306 -184.703 C -452.242 -186.614 -452.182 -186.523 -452.127 -186.428 L -417.4 -127.29 L -417.33 -127.29 C -417.26 -127.13 -417.18 -126.96 -417.09 -126.8 L -355.93 -29.96 C -354 -26.49 -347.14 -24.07 -339.29 -24.07 L -199 -24.07 C -187.81 -24.07 -179.6 -29.86 -182.36 -34.81 L -244.53 -130.65 C -246.45 -134.12 -253.31 -136.54 -261.16 -136.54 L -400.46 -136.54 C -401.39 -136.54 -402.3 -136.51 -403.18 -136.45 L -426.21 -175.73 L -292.69 -175.73 C -281.5 -175.73 -273.29 -180.52 -276.05 -185.47 L -335.28 -284.08 C -337.21 -287.54 -344.07 -289.96 -351.92 -289.96 L -491.21 -289.96 C -502.33 -290.08 -510.33 -290.08 -516.37 -290.08 L -699.72 -290.08 L -699.721 -290.08 C -701.131 -290.29 -702.63 -290.39 -704.16 -290.39 L -745.08 -290.39 L -891.81 -173.69 C -894.7 -171.43 -891.13 -168.6 -885.4 -168.6 L -858.77 -168.6 C -841.09 -168.6 -824.18 -165.3 -812.02 -159.45 L -801.69 -154.51 C -794.17 -150.9 -788.78 -146.5 -785.99 -141.69 L -715.48 -24.35 C -713.99 -21.78 -713.25 -19.14 -713.25 -16.53 C -713.25 -11.36 -716.12 -6.25 -721.71 -1.67 C -728.22 3.65 -740.55 6.95 -753.92 6.94 L -1324.26 6.63 C -1300.97 .84 -1300.37 -24.42 -1307.16 -36.08 L -1438.25 -322.2 C -1438.93 -323.41 -1436.93 -324.6 -1434.17 -324.6 L -1257.63 -324.22 C -1250.67 -324.21 -1244.62 -322.08 -1242.84 -319.01 L -1117.15 -37.13 C -1113.22 -30.38 -1113.75 -25.65 -1098.4 -25.61 L -974.68 -25.21 C -960 -25.16 -949.21 -31.49 -952.98 -37.95 L -1007.53 -129.28 C -1010.66 -134.39 -1016.27 -135.19 -1022.29 -135.15 L -1091.38 -134.71 C -1100.34 -134.64 -1111.9 -138 -1116.15 -141.6 L -1118.5 -143.8 C -1123.69 -148.17 -1121.82 -157.41 -1116.91 -161.84 L -938.99 -316.09 C -928.15 -326.6 -889.16 -324.2 -878.65 -324.2 L -220.4 -322.68 C -211.15 -322.68 -202.24 -321.6 -194.39 -319.66 C -186.54 -317.7 -179.76 -314.86 -174.79 -311.32 C -169.27 -307.39 -165.12 -303.1 -162.51 -298.58 L -104.87 -196.93 C -101.3 -190.76 -91.25 -176.2 -101.22 -171.7 L -124.43 -163.71 L -108.31 -162.32 C -102.47 -161.82 -96.75 -161.38 -91.39 -159.04 C -87.628 -157.406 -85.4 -156.29 -82.02 -153.35 C -77.89 -150.83 -68.82 -136.96 -66.03 -133.87 L 1.96 -20.6 C 2.78 -17.46 3.67 -14.26 3.67 -11.05 C 3.67 -7.32 2.45 -3.6 0 0 "/>
<path transform="matrix(1,0,0,-1,1486.04,380.52003)" d="M 0 0 L -62.17 -95.84 C -64.09 -99.31 -70.95 -101.73 -78.8 -101.73 L -218.1 -101.73 C -219.03 -101.73 -219.94 -101.7 -220.82 -101.64 L -243.85 -140.92 L -250.04 -151.48 L -269.84 -151.76 L -269.85 -151.76 L -235.04 -92.48 L -234.97 -92.48 C -234.9 -92.32 -234.82 -92.15 -234.73 -91.99 L -173.57 4.85 C -171.64 8.32 -164.78 10.74 -156.93 10.74 L -16.64 10.74 C -5.45 10.74 2.76 4.95 0 0 " fill="#ffffff"/>
<path transform="matrix(1,0,0,-1,979.9042,623.67239)" d="M 0 0 L -35.904 0 C -35.904 0 9.476 15.99 23.786 46.331 Z "/>
<path transform="matrix(1,0,0,-1,1282,522)" d="M 0 0 C -5 .19 -42.321 -3.55 -29 19 C -15.679 41.55 -4.468 40 -4.468 40 L 25.915 40 L 20 46.25 L -21 45.25 L -51 2.25 L -11 -28.75 C -11 -28.75 .808 -4.81 0 0 " fill="#ffffff"/>
</g>
</g>
</g>
</svg>
